<svg width="33" height="33" viewBox="0 0 33 33" fill="none" xmlns="http://www.w3.org/2000/svg">
<g clip-path="url(#clip0_104_788)">
<path d="M33 16.5C33 7.37674 25.6233 0 16.5 0C7.37674 0 0 7.37674 0 16.5C0 25.6233 7.37674 33 16.5 33C25.6233 33 33 25.6233 33 16.5Z" fill="#8C9091"/>
<path d="M33 16.5C33 7.37674 25.6233 0 16.5 0C7.37674 0 0 7.37674 0 16.5C0 25.6233 7.37674 33 16.5 33C25.6233 33 33 25.6233 33 16.5Z" fill="#8C9091"/>
<path d="M17.9479 12.5932V11.0305C17.9479 10.2722 18.4534 10.0883 18.8211 10.0883C19.1888 10.0883 21.0043 10.0883 21.0043 10.0883V6.73319L17.9938 6.71021C14.6387 6.71021 13.8803 9.21508 13.8803 10.8007V12.5702H11.95V16.4769H13.9033C13.9033 20.9122 13.9033 26.2436 13.9033 26.2436H17.81C17.81 26.2436 17.81 20.8432 17.81 16.4769H20.7055L21.0732 12.5702H17.9479V12.5932Z" fill="white"/>
</g>
<defs>
<clipPath id="clip0_104_788">
<rect width="33" height="33" fill="white"/>
</clipPath>
</defs>
</svg>
