<?xml version="1.0" encoding="utf-8"?>
<!-- Generator: Adobe Illustrator 24.2.1, SVG Export Plug-In . SVG Version: 6.00 Build 0)  -->
<svg version="1.1" id="Layer_1" xmlns="http://www.w3.org/2000/svg" xmlns:xlink="http://www.w3.org/1999/xlink" x="0px" y="0px"
	 viewBox="0 0 145.9 13.4" style="enable-background:new 0 0 145.9 13.4;" xml:space="preserve">
<style type="text/css">
	.st0{fill:#8C9091;}
</style>
<g>
	<path class="st0" d="M3.9,13.4c-3.4,0-4-2-3.9-4.2h2.7c0,1.2,0.1,2.3,1.5,2.3c0.9,0,1.4-0.6,1.4-1.5c0-2.3-5.5-2.5-5.5-6.4
		c0-2,1-3.7,4.3-3.7c2.6,0,4,1.2,3.8,3.9H5.6c0-1-0.2-2-1.3-2c-0.9,0-1.4,0.5-1.4,1.4c0,2.5,5.5,2.3,5.5,6.3
		C8.4,13,5.9,13.4,3.9,13.4"/>
	<path class="st0" d="M9.3,13.2l3.6-13h3.6l3.5,13h-2.9l-0.7-2.9h-3.7L12,13.2H9.3z M14.5,2.7L14.5,2.7l-1.3,5.6h2.6L14.5,2.7z"/>
	<polygon class="st0" points="21.1,13.2 21.1,0.2 25.5,0.2 27.5,9.1 27.6,9.1 29.7,0.2 34,0.2 34,13.2 31.3,13.2 31.3,3.2 31.3,3.2 
		28.8,13.2 26.2,13.2 23.8,3.2 23.8,3.2 23.8,13.2 	"/>
	<path class="st0" d="M39.6,13.4c-3.4,0-4-2-3.9-4.2h2.7c0,1.2,0.1,2.3,1.5,2.3c0.9,0,1.4-0.6,1.4-1.5c0-2.3-5.5-2.5-5.5-6.4
		c0-2,1-3.7,4.3-3.7c2.6,0,4,1.2,3.8,3.9h-2.6c0-1-0.2-2-1.3-2c-0.9,0-1.4,0.5-1.4,1.4c0,2.5,5.5,2.3,5.5,6.3
		C44.1,13,41.7,13.4,39.6,13.4"/>
	<path class="st0" d="M54.8,0.2v9.2c0,1.9-1.1,4-4.4,4c-3,0-4.4-1.5-4.4-4V0.2h2.7v9c0,1.6,0.7,2.2,1.7,2.2c1.2,0,1.7-0.8,1.7-2.2
		v-9H54.8z"/>
	<polygon class="st0" points="56.9,13.2 56.9,0.2 60.6,0.2 64,9.2 64.1,9.2 64.1,0.2 66.6,0.2 66.6,13.2 63,13.2 59.5,3.7 59.5,3.7 
		59.5,13.2 	"/>
	<path class="st0" d="M74.8,4.2c0-1.2-0.2-2.3-1.6-2.3c-1.7,0-1.7,2.3-1.7,4.8c0,4.1,0.4,4.8,1.9,4.8c0.5,0,0.9-0.1,1.3-0.3V8.4
		h-1.5v-2h4.2V13c-0.7,0.1-2.6,0.4-3.7,0.4c-4.6,0-5.1-1.9-5.1-6.8c0-3.3,0.2-6.6,4.6-6.6c2.7,0,4.3,1.5,4.2,4.2H74.8z"/>
	<path class="st0" d="M83.7,0.2h4.5c3.6,0,4.2,2.4,4.2,6.4c0,2,0.3,6.6-4.3,6.6h-4.4V0.2z M86.4,11.2h1.3c1.7,0,2-1.2,2-4.5
		c0-2.4,0-4.5-1.9-4.5h-1.4V11.2z"/>
	<rect x="94.5" y="0.2" class="st0" width="2.7" height="13"/>
	<path class="st0" d="M103,13.4c-3.4,0-4-2-3.9-4.2h2.7c0,1.2,0.1,2.3,1.5,2.3c0.9,0,1.4-0.6,1.4-1.5c0-2.3-5.5-2.5-5.5-6.4
		c0-2,1-3.7,4.3-3.7c2.6,0,4,1.2,3.8,3.9h-2.6c0-1-0.2-2-1.3-2c-0.9,0-1.4,0.5-1.4,1.4c0,2.5,5.5,2.3,5.5,6.3
		C107.5,13,105.1,13.4,103,13.4"/>
	<path class="st0" d="M109.4,0.2h4.9c2.5,0,3.5,1.5,3.5,3.9c0,1.5-0.4,3.8-3.6,3.8h-2v5.3h-2.7V0.2z M112.1,5.9h1.5
		c0.8,0,1.4-0.9,1.4-1.7c0-1.1-0.3-2-1.5-2h-1.4V5.9z"/>
	<polygon class="st0" points="119.3,13.2 119.3,0.2 122,0.2 122,11.1 126.1,11.1 126.1,13.2 	"/>
	<path class="st0" d="M126.2,13.2l3.6-13h3.6l3.5,13H134l-0.7-2.9h-3.7l-0.7,2.9H126.2z M131.4,2.7L131.4,2.7l-1.3,5.6h2.6
		L131.4,2.7z"/>
	<polygon class="st0" points="139.5,8.7 136.1,0.2 139.1,0.2 141,5.7 143.1,0.2 145.9,0.2 142.2,8.7 142.2,13.2 139.5,13.2 	"/>
</g>
</svg>
