<svg width="200" height="19" viewBox="0 0 200 19" fill="none" xmlns="http://www.w3.org/2000/svg">
<g clip-path="url(#clip0_103_758)">
<path d="M5.34599 18.9999C0.685263 18.9999 -0.137219 16.1641 -0.000138355 13.0447H3.70103C3.70103 14.7462 3.83811 16.3059 5.75723 16.3059C6.99095 16.3059 7.67635 15.4552 7.67635 14.1791C7.67635 10.9179 0.136942 10.6343 0.136942 5.10442C0.136942 2.2686 1.50774 -0.141846 6.03139 -0.141846C9.59548 -0.141846 11.5146 1.55965 11.2404 5.388H7.67635C7.67635 3.97009 7.40219 2.55218 5.89431 2.55218C4.66059 2.55218 3.97519 3.26114 3.97519 4.53726C3.97519 8.08204 11.5146 7.79845 11.5146 13.4701C11.5146 18.4328 8.08759 18.9999 5.34599 18.9999Z" fill="white"/>
<path d="M12.7485 18.7163L17.6834 0.283447H22.6183L27.4161 18.7163H23.4408L22.4812 14.6043H17.4093L16.4497 18.7163H12.7485ZM19.8767 3.82822L18.0947 11.7685H21.6587L19.8767 3.82822Z" fill="white"/>
<path d="M28.9241 18.7163V0.283447H34.9556L37.6972 12.9029H37.8343L40.713 0.283447H46.6074V18.7163H42.9063V4.53718L39.4792 18.7163H35.9152L32.6252 4.53718V18.7163H28.9241Z" fill="white"/>
<path d="M54.2837 18.9999C49.623 18.9999 48.8005 16.1641 48.9376 13.0447H52.6388C52.6388 14.7462 52.7759 16.3059 54.695 16.3059C55.9287 16.3059 56.6141 15.4552 56.6141 14.1791C56.6141 10.9179 49.0747 10.6343 49.0747 5.10442C49.0747 2.2686 50.4455 -0.141846 54.9691 -0.141846C58.5332 -0.141846 60.4523 1.55965 60.1782 5.388H56.6141C56.6141 3.97009 56.3399 2.55218 54.8321 2.55218C53.5983 2.55218 52.9129 3.26114 52.9129 4.53726C52.9129 8.08204 60.4523 7.79845 60.4523 13.4701C60.4523 18.4328 57.1624 18.9999 54.2837 18.9999Z" fill="white"/>
<path d="M75.1199 0.283447V13.3282C75.1199 16.0223 73.6121 18.9999 69.0884 18.9999C64.976 18.9999 63.0569 16.873 63.0569 13.3282V0.283447H66.7581V13.0446C66.7581 15.3133 67.7176 16.164 69.0884 16.164C70.7334 16.164 71.4188 15.0297 71.4188 13.0446V0.283447H75.1199Z" fill="white"/>
<path d="M77.9988 18.7163V0.283447H83.0707L87.7315 13.0446H87.8685V0.283447H91.2956V18.7163H86.3607L81.5629 5.24613V18.7163H77.9988Z" fill="white"/>
<path d="M102.536 5.95522C102.536 4.25373 102.262 2.69403 100.343 2.69403C98.0124 2.69403 98.0124 5.95522 98.0124 9.5C98.0124 15.3134 98.5608 16.306 100.617 16.306C101.302 16.306 101.851 16.1642 102.399 15.8806V11.9104H100.343V9.07463H106.1V18.4328C105.141 18.5746 102.536 19 101.028 19C94.7225 19 94.0371 16.306 94.0371 9.35821C94.0371 4.6791 94.3113 0 100.343 0C104.044 0 106.237 2.12687 106.1 5.95522H102.536Z" fill="white"/>
<path d="M114.736 0.283447H120.905C125.84 0.283447 126.662 3.68643 126.662 9.35807C126.662 12.1939 127.073 18.7163 120.768 18.7163H114.736V0.283447ZM118.437 15.8805H120.219C122.55 15.8805 122.961 14.179 122.961 9.49987C122.961 6.09688 122.961 3.11927 120.356 3.11927H118.437V15.8805Z" fill="white"/>
<path d="M133.242 0.283447H129.541V18.7163H133.242V0.283447Z" fill="white"/>
<path d="M141.193 18.9999C136.532 18.9999 135.709 16.1641 135.847 13.0447H139.548C139.548 14.7462 139.685 16.3059 141.604 16.3059C142.838 16.3059 143.523 15.4552 143.523 14.1791C143.523 10.9179 135.984 10.6343 135.984 5.10442C135.984 2.2686 137.354 -0.141846 141.878 -0.141846C145.442 -0.141846 147.361 1.55965 147.087 5.388H143.523C143.523 3.97009 143.249 2.55218 141.741 2.55218C140.507 2.55218 139.822 3.26114 139.822 4.53726C139.822 8.08204 147.361 7.79845 147.361 13.4701C147.361 18.4328 144.071 18.9999 141.193 18.9999Z" fill="white"/>
<path d="M149.966 0.283447H156.683C160.11 0.283447 161.481 2.41031 161.481 5.8133C161.481 7.94016 160.932 11.2014 156.546 11.2014H153.804V18.7163H150.103V0.283447H149.966ZM153.667 8.36554H155.723C156.82 8.36554 157.642 7.08942 157.642 5.95509C157.642 4.39539 157.231 3.11927 155.586 3.11927H153.667V8.36554Z" fill="white"/>
<path d="M163.537 18.7163V0.283447H167.238V15.7387H172.858V18.7163H163.537Z" fill="white"/>
<path d="M172.995 18.7163L177.93 0.283447H182.865L187.663 18.7163H183.688L182.728 14.6043H177.656L176.697 18.7163H172.995ZM180.124 3.82822L178.342 11.7685H181.906L180.124 3.82822Z" fill="white"/>
<path d="M191.227 12.3357L186.566 0.283447H190.679L193.283 8.08195L196.162 0.283447H200L194.928 12.3357V18.7163H191.227V12.3357Z" fill="white"/>
</g>
<defs>
<clipPath id="clip0_103_758">
<rect width="200" height="19" fill="white"/>
</clipPath>
</defs>
</svg>
