<?xml version="1.0" encoding="utf-8"?>
<!-- Generator: Adobe Illustrator 24.2.1, SVG Export Plug-In . SVG Version: 6.00 Build 0)  -->
<svg version="1.1" id="Layer_1" xmlns="http://www.w3.org/2000/svg" xmlns:xlink="http://www.w3.org/1999/xlink" x="0px" y="0px"
	 viewBox="0 0 90.7 90.7" style="enable-background:new 0 0 90.7 90.7;" xml:space="preserve">
<style type="text/css">
	.st0{clip-path:url(#SVGID_2_);}
	.st1{opacity:0;clip-path:url(#SVGID_4_);}
	.st2{clip-path:url(#SVGID_6_);}
	.st3{fill:none;}
	.st4{fill:none;stroke:#034EA1;stroke-width:2.583;stroke-linecap:round;stroke-linejoin:round;stroke-miterlimit:14.76;}
	.st5{fill:none;stroke:#212121;stroke-width:2.583;stroke-linecap:round;stroke-linejoin:round;stroke-miterlimit:14.76;}
	.st6{opacity:0;clip-path:url(#SVGID_8_);}
	.st7{clip-path:url(#SVGID_10_);}
	.st8{clip-path:url(#SVGID_12_);}
	.st9{clip-path:url(#SVGID_14_);}
	.st10{fill:none;stroke:#212121;stroke-width:0.7;stroke-linecap:round;stroke-linejoin:round;}
</style>
<g>
	<defs>
		<rect id="SVGID_1_" x="-11.3" y="-11.3" width="113.4" height="113.4"/>
	</defs>
	<clipPath id="SVGID_2_">
		<use xlink:href="#SVGID_1_"  style="overflow:visible;"/>
	</clipPath>
	<g class="st0">
		<g>
			<defs>
				<rect id="SVGID_3_" x="-17.6" y="-17.6" width="126" height="126"/>
			</defs>
			<clipPath id="SVGID_4_">
				<use xlink:href="#SVGID_3_"  style="overflow:visible;"/>
			</clipPath>
			<g transform="translate(-27.777 -27.777) scale(1.11111)" class="st1">
				<g>
					<defs>
						<rect id="SVGID_5_" x="9.1" y="9.1" width="113.4" height="113.4"/>
					</defs>
					<clipPath id="SVGID_6_">
						<use xlink:href="#SVGID_5_"  style="overflow:visible;"/>
					</clipPath>
					<g transform="matrix(.9 0 0 .9 25 25)" class="st2">
						<path class="st3" d="M-11.3,102"/>
						<path class="st3" d="M-11.3,102"/>
						<path class="st3" d="M-11.3,102"/>
						<path class="st3" d="M-11.3,102"/>
						<path class="st3" d="M-11.3,102"/>
						<path class="st3" d="M-11.3,102"/>
						<path class="st3" d="M-11.3,102"/>
						<path class="st4" d="M45.3,87.2c-14.2,0-25.8-18.7-25.8-41.8S31.1,3.5,45.3,3.5 M45.3,87.2c0.1-7.3,0.1-18.7,0.1-41.8
							s-0.1-28.7-0.1-41.8"/>
						<path class="st4" d="M45.3,87.2C60,87.2,72,68.5,72,45.4S60,3.5,45.3,3.5 M3.5,45.4h83.7"/>
						<path class="st4" d="M72.4,13.4c-7.3,3.8-16.7,6.1-27,6.1c-10.3,0-19.8-2.3-27.1-6.1 M18.3,77.3c7.3-3.8,16.7-6.1,27-6.1
							s19.8,2.3,27.1,6.1"/>
					</g>
				</g>
				<path class="st5" d="M103.5,65.8c0,20.8-16.9,37.7-37.7,37.7S28.1,86.6,28.1,65.8S45,28.2,65.8,28.2S103.5,45,103.5,65.8z"/>
			</g>
		</g>
		<g>
			<defs>
				<rect id="SVGID_7_" x="-17.6" y="-17.6" width="126" height="126"/>
			</defs>
			<clipPath id="SVGID_8_">
				<use xlink:href="#SVGID_7_"  style="overflow:visible;"/>
			</clipPath>
			<g transform="translate(-27.777 -27.777) scale(1.11111)" class="st6">
				<g>
					<defs>
						<rect id="SVGID_9_" x="9.1" y="9.1" width="113.4" height="113.4"/>
					</defs>
					<clipPath id="SVGID_10_">
						<use xlink:href="#SVGID_9_"  style="overflow:visible;"/>
					</clipPath>
					<g transform="matrix(.9 0 0 .9 25 25)" class="st7">
						<path class="st3" d="M-11.3,102"/>
						<path class="st3" d="M-11.3,102"/>
						<path class="st3" d="M-11.3,102"/>
						<path class="st3" d="M-11.3,102"/>
						<path class="st3" d="M-11.3,102"/>
						<path class="st3" d="M-11.3,102"/>
						<path class="st3" d="M-11.3,102"/>
						<path class="st4" d="M45.3,87.2c-14.2,0-25.8-18.7-25.8-41.8S31.1,3.5,45.3,3.5 M45.3,87.2c0.1-7.3,0.1-18.7,0.1-41.8
							s-0.1-28.7-0.1-41.8"/>
						<path class="st4" d="M45.3,87.2C60,87.2,72,68.5,72,45.4S60,3.5,45.3,3.5 M3.5,45.4h83.7"/>
						<path class="st4" d="M72.4,13.4c-7.3,3.8-16.7,6.1-27,6.1c-10.3,0-19.8-2.3-27.1-6.1 M18.3,77.3c7.3-3.8,16.7-6.1,27-6.1
							s19.8,2.3,27.1,6.1"/>
					</g>
				</g>
				<path class="st5" d="M103.5,65.8c0,20.8-16.9,37.7-37.7,37.7S28.1,86.6,28.1,65.8S45,28.2,65.8,28.2S103.5,45,103.5,65.8z"/>
			</g>
		</g>
		<g>
			<defs>
				<rect id="SVGID_11_" x="-17.6" y="-17.6" width="126" height="126"/>
			</defs>
			<clipPath id="SVGID_12_">
				<use xlink:href="#SVGID_11_"  style="overflow:visible;"/>
			</clipPath>
			<g transform="translate(-27.777 -27.777) scale(1.11111)" class="st8">
				<g>
					<defs>
						<rect id="SVGID_13_" x="9.1" y="9.1" width="113.4" height="113.4"/>
					</defs>
					<clipPath id="SVGID_14_">
						<use xlink:href="#SVGID_13_"  style="overflow:visible;"/>
					</clipPath>
					<g transform="matrix(.9 0 0 .9 25 25)" class="st9">
						<path class="st3" d="M-11.3,102"/>
						<path class="st3" d="M-11.3,102"/>
						<path class="st3" d="M-11.3,102"/>
						<path class="st3" d="M-11.3,102"/>
						<path class="st3" d="M-11.3,102"/>
						<path class="st3" d="M-11.3,102"/>
						<path class="st3" d="M-11.3,102"/>
						<path class="st4" d="M45.3,87.2c-14.2,0-25.8-18.7-25.8-41.8S31.1,3.5,45.3,3.5 M45.3,87.2c0.1-7.3,0.1-18.7,0.1-41.8
							s-0.1-28.7-0.1-41.8"/>
						<path class="st4" d="M45.3,87.2C60,87.2,72,68.5,72,45.4S60,3.5,45.3,3.5 M3.5,45.4h83.7"/>
						<path class="st4" d="M72.4,13.4c-7.3,3.8-16.7,6.1-27,6.1c-10.3,0-19.8-2.3-27.1-6.1 M18.3,77.3c7.3-3.8,16.7-6.1,27-6.1
							s19.8,2.3,27.1,6.1"/>
					</g>
				</g>
				<path class="st5" d="M103.5,65.8c0,20.8-16.9,37.7-37.7,37.7S28.1,86.6,28.1,65.8S45,28.2,65.8,28.2S103.5,45,103.5,65.8z"/>
			</g>
		</g>
		<path class="st10" d="M-11.3,102"/>
	</g>
</g>
</svg>
