<?xml version="1.0" encoding="utf-8"?>
<!-- Generator: Adobe Illustrator 24.2.1, SVG Export Plug-In . SVG Version: 6.00 Build 0)  -->
<svg version="1.1" id="Layer_1" xmlns="http://www.w3.org/2000/svg" xmlns:xlink="http://www.w3.org/1999/xlink" x="0px" y="0px"
	 viewBox="0 0 143.6 143.6" style="enable-background:new 0 0 143.6 143.6;" xml:space="preserve">
<style type="text/css">
	.st0{fill:#B0B0B0;}
	.st1{fill:#D42027;}
	.st2{fill:#FFFFFF;}
	.st3{fill:#DA1F26;}
	.st4{fill:#EEEEEE;}
</style>
<g>
	<g>
		<path id="XMLID_3_" class="st0" d="M143.6,71.8C143.6,32.2,111.5,0,71.8,0C32.2,0,0,32.2,0,71.8c0,39.7,32.1,71.8,71.8,71.8
			C111.5,143.6,143.6,111.5,143.6,71.8z"/>
	</g>
	<g>
		<path id="XMLID_41_" class="st1" d="M143.6,71.8C143.6,32.1,111.5,0,71.8,0C32.2,0,0,32.1,0,71.8c0,39.7,32.1,71.8,71.8,71.8
			C111.5,143.6,143.6,111.5,143.6,71.8z"/>
		<path class="st2" d="M90.2,98.3H53.5c-9.8,0-17.8-8-17.8-17.8V63.1c0-9.8,8-17.8,17.8-17.8h36.7c9.8,0,17.8,8,17.8,17.8v17.4
			C107.9,90.4,100,98.3,90.2,98.3z"/>
		<path class="st3" d="M86.5,72L62.4,85c-0.8,0.4-1.8-0.1-1.8-1.1l0-26.2c0-0.9,1-1.5,1.8-1.1l24.1,13.1
			C87.3,70.3,87.3,71.5,86.5,72z"/>
	</g>
</g>
<g>
	<g>
		<path id="XMLID_2_" class="st0" d="M469.4,71.8c0-39.7-32.1-71.8-71.8-71.8c-39.7,0-71.8,32.1-71.8,71.8
			c0,39.7,32.1,71.8,71.8,71.8C437.3,143.6,469.4,111.5,469.4,71.8z"/>
	</g>
	<g>
		<path id="XMLID_21_" class="st4" d="M469.4,71.8c0-39.7-32.1-71.8-71.8-71.8c-39.7,0-71.8,32.1-71.8,71.8
			c0,39.7,32.1,71.8,71.8,71.8C437.3,143.6,469.4,111.5,469.4,71.8z"/>
		<path id="XMLID_19_" class="st2" d="M403.9,54.8V48c0-3.3,2.2-4.1,3.8-4.1c1.6,0,9.5,0,9.5,0V29.3l-13.1-0.1
			c-14.6,0-17.9,10.9-17.9,17.8v7.7h-8.4v17h8.5c0,19.3,0,42.5,0,42.5h17c0,0,0-23.5,0-42.5h12.6l1.6-17H403.9z"/>
	</g>
</g>
</svg>
