<svg xmlns="http://www.w3.org/2000/svg" width="500" height="500" style="width:100%;height:100%;transform:translate3d(0,0,0);content-visibility:visible" viewBox="0 0 500 500"><defs><clipPath id="a"><path d="M0 0h500v500H0z"/></clipPath></defs><g clip-path="url(#a)"><path fill="none" stroke="#034EA1" stroke-linecap="round" stroke-linejoin="round" stroke-width="4.8" d="M94.667 344.589a38.424 38.424 0 0 1-8.182-23.764 38.424 38.424 0 0 1 8.182-23.764m-15.993 59.407a57.655 57.655 0 0 1-12.266-35.643 57.655 57.655 0 0 1 12.266-35.643" style="display:block"/><g fill="none" style="display:none"><path/><path/></g><g fill="none" style="display:none"><path/><path/></g><g fill="none" style="display:none"><path/><path/></g><path fill="none" stroke="#034EA1" stroke-linecap="round" stroke-linejoin="round" stroke-width="4.8" d="M406.284 344.589a38.424 38.424 0 0 0 8.182-23.764 38.424 38.424 0 0 0-8.182-23.764m15.993 59.407a57.655 57.655 0 0 0 12.266-35.643 57.655 57.655 0 0 0-12.266-35.643" style="display:block"/><g fill="none" style="display:none"><path/><path/></g><g fill="none" style="display:none"><path/><path/></g><g fill="none" style="display:none"><path/><path/></g><g fill="none" stroke="#212121" stroke-linecap="round" stroke-linejoin="round" stroke-width="4.8" style="display:block"><path d="M342.042 239.074H157.958c-6.6 0-12-5.4-12-12V101.94c0-6.6 5.4-12 12-12h184.084c6.6 0 12 5.4 12 12v125.134c0 6.6-5.4 12-12 12z"/><path d="M333.907 206.158H166.093V109.5h167.814v96.658zm-95.855 32.916h23.896s6.825 20.166 15.146 24.27h-54.188c8.321-4.104 15.146-24.27 15.146-24.27z"/></g><g fill="none" stroke-linecap="round" stroke-linejoin="round" stroke-width="4.8" style="display:block"><path stroke="#034EA1" d="M158.283 364.241h.104"/><path stroke="#212121" d="M180.315 265.626h-44.118c-7.275 0-13.173 5.898-13.173 13.173v92.052c0 7.275 5.898 13.173 13.173 13.173h44.118c7.275 0 13.173-5.898 13.173-13.173v-92.052c0-7.275-5.898-13.173-13.173-13.173zm13.173 79.286h-70.464m46.535 39.112 6.939 24.974h-36.484l6.939-24.974"/></g><g fill="none" stroke-linecap="round" stroke-linejoin="round" stroke-width="4.8" style="display:block"><path stroke="#034EA1" d="M342.18 364.241h.104"/><path stroke="#212121" d="M363.479 265.626h-42.494c-7.724 0-13.985 6.261-13.985 13.985v90.428c0 7.724 6.261 13.985 13.985 13.985h42.494c7.724 0 13.985-6.261 13.985-13.985v-90.428c0-7.724-6.261-13.985-13.985-13.985zm13.985 79.286H307m46.535 39.112 6.939 24.974H323.99l6.939-24.974"/></g><path style="display:none"/></g></svg>