<svg width="33" height="33" viewBox="0 0 33 33" fill="none" xmlns="http://www.w3.org/2000/svg">
<g clip-path="url(#clip0_104_802)">
<path d="M33 16.5C33 7.39972 25.6233 0 16.5 0C7.39972 0 0 7.39972 0 16.5C0 25.6233 7.37674 33 16.5 33C25.6233 33 33 25.6233 33 16.5Z" fill="#8C9091"/>
<path d="M33 16.5C33 7.37674 25.6233 0 16.5 0C7.39972 0 0 7.37674 0 16.5C0 25.6233 7.37674 33 16.5 33C25.6233 33 33 25.6233 33 16.5Z" fill="#8C9091"/>
<path d="M20.7285 22.5898H12.2946C10.0425 22.5898 8.2041 20.7514 8.2041 18.4993V14.5007C8.2041 12.2486 10.0425 10.4102 12.2946 10.4102H20.7285C22.9806 10.4102 24.819 12.2486 24.819 14.5007V18.4993C24.796 20.7744 22.9806 22.5898 20.7285 22.5898Z" fill="white"/>
<path d="M19.8782 16.546L14.3399 19.5335C14.1561 19.6254 13.9263 19.5105 13.9263 19.2807V13.2598C13.9263 13.053 14.1561 12.9151 14.3399 13.007L19.8782 16.0175C20.0621 16.1554 20.0621 16.4311 19.8782 16.546Z" fill="#8C9091"/>
</g>
<defs>
<clipPath id="clip0_104_802">
<rect width="33" height="33" fill="white"/>
</clipPath>
</defs>
</svg>
